# xmcd CD database file
# Copyright (C) 1993-1998 Ti Kan
#
# Track frame offsets:
#	150
#	13837
#	27338
#	42530
#	54260
#	73205
#	86170
#	98473
#	113185
#	127603
#	139325
#	156130
#
# Disc length: 2244 seconds
#
# Revision: 1
# Processed by: cddbd v1.4b41PL1 Copyright (c) Steve Scherf et al.
# Submitted via: CDValet v3.31 - Copyright (c) 1997 Greg Leichner
#
DISCID=9d08c20c
DTITLE=The New Coon Creek Girls - Ain't Love A Good Thing
DYEAR=1900
DGENRE=
TTITLE0=Abraham
TTITLE1=Ain't Love A Good Thing
TTITLE2=Westbound Train
TTITLE3=It's Gonna Rain
TTITLE4=Casting Stones
TTITLE5=Scalded Squaw
TTITLE6=Country In my Genes
TTITLE7=Our Paths May Cross Again
TTITLE8=Kiss Me One More Time
TTITLE9=Just One Time
TTITLE10=Ramona's Dream
TTITLE11=Wild Bill Jones
EXTD=Bluegrass
EXTT0=
EXTT1=
EXTT2=
EXTT3=
EXTT4=
EXTT5=
EXTT6=
EXTT7=
EXTT8=
EXTT9=
EXTT10=
EXTT11=
PLAYORDER=
